<svg width="1024" height="1024" viewBox="0 0 1024 1024" fill="none" xmlns="http://www.w3.org/2000/svg">
<path d="M463.947 344.706C495.14 341.537 526.021 341.695 556.761 343.043C595.863 344.759 634.495 350.475 672.166 362.033C697.304 369.747 721.505 379.201 743.842 393.192C749.234 396.57 755.037 399.169 761.503 399.633C764.602 399.855 765.192 401.515 765.402 404.224C765.842 409.891 765.457 415.531 765.435 421.186C765.247 470.347 765.481 519.513 764.896 568.668C764.769 579.324 777.812 596.33 788.026 598.525C792.124 599.405 793.348 601.506 793.334 605.476C793.273 622.84 791.406 639.969 787.344 656.856C786.92 658.618 786.634 660.437 784.622 662.006C774.435 652.472 765.517 641.434 752.7 633.106C760.517 671.101 754.808 705.67 733.76 737.544C728.879 724.088 724.667 710.736 717.106 698.326C714.548 700.479 715.385 702.96 715.399 705.07C715.592 733.547 709.574 760.534 696.399 785.874C692.142 794.061 686.549 801.304 680.972 808.571C679.984 809.858 678.876 811.21 676.56 811.199C674.462 809.13 674.704 806.255 674.693 803.502C674.655 793.84 674.423 784.194 672.738 774.648C672.543 773.539 672.07 772.479 671.198 769.734C657.277 808.929 640.584 844.786 608.081 871.596C605.322 865.598 607.629 860.821 608.093 856.064C608.756 849.282 609.743 842.532 610.513 835.759C610.74 833.761 610.605 831.756 609.21 830.02C607.212 829.798 606.816 831.504 606.156 832.722C596.956 849.703 585.038 864.732 571.824 878.625C558.514 892.619 545.085 906.54 530.57 919.35C526.997 922.503 524.66 922.517 520.901 919.293C503.283 904.184 486.621 888.119 471.611 870.438C461.048 857.996 451.107 845.021 444.358 829.953C443.9 828.932 443.167 828.034 441.992 827.154C441.312 833.05 441.003 838.862 441.785 844.727C442.663 851.316 443.473 857.916 444.193 864.524C444.348 865.944 444.675 867.722 443.208 868.675C441.495 869.787 440.017 868.529 438.667 867.613C430.948 862.376 425.505 854.929 419.694 847.861C402.199 826.582 390.741 802.088 381.724 776.303C381.192 774.779 381.078 773.031 378.802 771.291C374.729 784.588 377.374 798.081 374.954 811.292C359.55 796.913 350.761 778.729 343.662 759.586C336.494 740.259 332.785 720.296 333.731 699.408C324.125 711.082 322.541 725.561 319.108 739.308C316.272 738.913 315.647 736.797 314.681 735.177C304.045 717.343 298.227 697.883 294.553 677.548C292.168 664.349 292.765 651.428 295.238 638.431C295.459 637.268 295.675 636.142 294.605 634.496C283.301 642.31 273.096 651.183 265.447 662.91C264.923 662.729 264.399 662.548 263.875 662.366C261.81 653.894 259.477 645.475 257.747 636.935C255.598 626.321 254.698 615.541 254.346 604.702C254.232 601.177 256.207 599.952 258.771 598.974C267.953 595.475 273.569 588.528 277.544 579.91C279.25 576.211 280.176 572.373 280.041 568.298C278.316 516.155 278.962 463.993 278.807 411.837C278.795 407.699 278.401 403.616 277.488 399.983C278.666 398.655 279.762 398.599 280.676 398.842C291.5 401.724 300.732 397.045 308.673 391.175C329.517 375.766 353.281 367.667 377.834 361.034C399.691 355.129 421.666 349.863 444.187 347.159C450.627 346.385 457.057 345.536 463.947 344.706ZM667.766 671.531C668.055 669.557 668.467 667.591 668.614 665.606C671.217 630.618 661.533 599.128 641.543 570.563C633.962 559.731 625.794 549.486 614.902 541.684C612.518 539.976 609.567 537.486 611.101 534.28C612.62 531.108 616.071 532.924 618.734 533.314C623.002 533.94 627.196 535.149 631.598 534.494C646.721 532.242 661.111 527.648 674.627 520.553C682.47 516.435 689.879 511.511 695.139 504.145C710.379 482.801 713.398 458.756 707.806 434.048C698.547 393.135 655.316 370.352 617.762 374.781C586.414 378.478 559.645 393.186 536.958 415.102C533.043 418.884 529.603 423.158 525.883 427.271C525.006 426.753 524.328 426.54 523.92 426.085C511.187 411.869 495.373 401.577 479.333 391.731C446.442 371.541 412.466 367.585 377.451 386.393C368.433 391.236 360.206 397.193 353.957 405.446C338.19 426.269 335.579 449.858 340.002 474.712C342.482 488.65 349.22 500.872 360.12 509.524C381.451 526.454 405.713 535.977 433.606 533.739C434.928 533.633 436.281 533.652 437.598 533.8C440.161 534.088 440.581 535.529 439.465 537.66C438.571 539.368 436.911 540.23 435.459 541.336C431.624 544.254 427.188 546.313 423.745 549.805C409.212 564.548 399.348 582.393 391.847 601.273C383.13 623.214 381.559 646.595 382.562 670.04C382.763 674.735 382.938 679.664 385.36 684.128C395.327 702.5 408.274 718.395 424.372 731.731C437.894 742.934 453.758 749.884 469.592 756.974C484.294 763.557 499.835 765.899 515.669 766.705C524.476 767.153 533.325 766.723 542.154 766.781C545.311 766.801 549.066 766.579 549.682 770.78C550.279 774.86 548.062 777.822 544.196 779.303C524.375 786.897 503.986 786.722 483.669 782.516C467.639 779.198 453.288 771.058 438.461 764.396C435.923 763.255 433.439 762.154 430.51 764.359C431.408 765.304 432.001 766.097 432.751 766.692C444.961 776.371 458.319 784.096 472.643 790.208C498.356 801.181 525.056 803.886 552.374 798.802C582.473 793.201 607.558 777.497 629.616 757.092C642.269 745.387 651.859 731.003 658.383 714.847C659.117 713.029 661.008 710.757 658.462 709.008C656.14 707.412 654.495 709.582 652.726 710.706C651.03 711.785 649.689 713.699 646.785 713.438C650.422 706.304 654.369 699.927 659.24 694.286C664.748 687.907 667.331 680.659 667.766 671.531ZM409.695 743.792C412.359 746.748 415.008 749.716 417.692 752.653C418.69 753.745 419.701 755.118 421.451 754.054C423.189 752.997 422.613 751.472 421.91 750.116C420.661 747.71 420.305 745.102 419.783 742.493C418.993 738.55 417.711 734.566 414.436 732.061C409.813 728.526 405.674 724.492 401.414 720.579C399.5 718.821 397.717 718.663 395.507 720.374C395.929 721.434 396.315 722.5 396.772 723.535C399.943 730.725 404.681 736.922 409.695 743.792ZM331.638 558.083C331.348 556.564 330.541 555.317 329.481 554.249C326.235 550.983 321.806 550.577 317.738 553.37C314.937 555.294 312.426 557.606 313.754 561.555C314.975 565.184 321.01 569.05 324.342 568.5C328.771 567.77 331.495 564.22 331.638 558.083ZM732.748 558.742C731.732 554.271 728.642 551.878 724.37 551.459C720.584 551.088 718.117 553.82 716.72 556.896C715.151 560.352 716.841 563.419 719.419 565.83C724.279 570.376 731.056 567.131 732.748 558.742ZM697.48 572.995C697.833 568.025 695.098 565.219 690.747 563.761C687.412 562.644 681.969 565.249 680.769 568.609C679.318 572.671 681.534 575.286 684.833 577.208C689.441 579.894 692.899 578.881 697.48 572.995ZM713.681 608.239C715.475 605.621 716.418 602.931 714.541 599.916C712.319 596.346 708.519 595.155 704.586 596.95C700.787 598.684 698.005 601.724 698.78 605.846C699.614 610.285 703.573 611.322 707.771 610.982C709.803 610.818 711.71 610.377 713.681 608.239ZM346.557 606.922C348.685 602.055 347.895 599.205 343.85 596.303C341.167 594.379 338.836 594.233 336.442 596.796C333.228 600.237 332.15 604.883 334.469 607.52C337.54 611.014 341.229 610.03 344.845 608.381C345.283 608.181 345.632 607.787 346.557 606.922ZM352.296 566.079C351.164 567.853 350.91 569.867 351.367 571.802C352.214 575.398 354.562 577.65 358.372 577.445C362.394 577.23 366.07 573.751 365.678 570.843C365.188 567.221 362.714 565.083 359.667 563.514C356.774 562.025 354.617 563.37 352.296 566.079Z" fill="black"/>
<path d="M607.144 280.046C598.537 278.449 598.505 278.451 598.003 269.744C597.293 257.447 596.402 245.153 596.066 232.845C595.919 227.45 548.962 202.166 543.5 201.232C519.08 197.052 545.023 200.319 520.358 200.937C502.883 201.376 528.39 199.614 511 201.232C507.255 201.58 456.833 226.668 456.338 230.767C454.421 246.642 454.012 262.582 453.94 278.18C403.043 287.18 353.05 298.375 307.357 324.165C305.924 321.893 306.596 319.675 306.847 317.688C309.43 297.245 311.84 276.786 316.706 256.691C324.733 223.543 341.057 195.886 369.706 176.571C392.069 161.494 416.142 149.913 442.292 142.745C459.315 138.079 476.241 133.172 494.051 132.659C495.572 132.615 497.21 132.668 497.564 130.676C499.833 117.912 509.356 114.258 520.358 112.856C529.876 111.643 538.461 114.701 546.347 119.855C549.358 121.823 551.74 124.454 552.263 128.157C552.763 131.698 554.793 132.612 558.082 132.899C599.711 136.525 638.06 150.175 672.991 172.703C700.381 190.367 720.708 214.304 729.491 246.409C735.018 266.615 738.487 287.281 740.363 308.186C740.788 312.923 741.633 317.622 742.48 323.745C699.021 301.688 654.044 288.535 607.144 280.046ZM414.105 183.789C411.258 188.183 411.065 192.71 414.574 196.632C417.594 200.007 421.311 202.639 426.403 201.232C431.486 199.827 434.468 196.322 435.097 190.935C435.592 186.701 432.721 181.872 428.389 179.649C423.891 177.342 419.755 178.404 414.105 183.789ZM624.728 200.937C631.786 202.573 637.394 199.242 639.084 192.409C640.274 187.598 636.189 180.911 631.206 179.515C624.726 177.699 618.902 180.711 616.858 186.935C615.136 192.178 617.56 196.78 624.728 200.937Z" fill="black"/>
<path d="M929.889 429.303C945.315 467.031 939.536 501.92 916.208 533.889C905.724 548.257 889.712 555.939 873.337 562.077C869.776 563.411 867.758 564.62 868.34 568.522C870.014 579.743 859.685 588.655 848.582 588.488C834.775 588.28 820.964 589.722 807.126 589.288C799.573 589.05 792.752 586.809 786.752 582.146C783.255 579.429 781.209 575.813 780.92 571.503C780.509 565.368 780.215 559.189 780.483 553.056C780.767 546.533 780.043 540.074 780.023 533.583C779.899 492.253 779.786 450.923 779.678 409.593C779.649 398.57 779.67 398.576 786.318 389.526C790.455 383.893 791.929 378.203 788.348 371.425C785.355 365.76 782.193 360.334 777.469 356.022C775.262 354.006 775.457 352.546 777.396 350.695C782.998 345.346 789.332 341.956 797.349 341.64C814.226 340.975 830.947 342.813 847.583 344.973C859.283 346.492 870.338 356.656 869.325 370.116C869.15 372.439 869.252 374.784 869.084 377.109C868.527 384.803 868.48 384.906 875.712 386.411C900.796 391.634 918.593 406.054 929.889 429.303ZM839.584 368.039C836.264 367.799 832.948 367.435 829.624 367.344C822.347 367.144 822.317 367.2 822.359 374.308C822.639 421.791 822.915 469.273 823.239 516.756C823.279 522.558 824.04 528.384 823.69 534.152C823.102 543.818 823.553 553.47 823.345 563.124C823.29 565.655 824.374 566.737 826.909 566.745C831.74 566.758 836.584 566.735 841.398 567.08C845.687 567.387 847.253 565.56 846.627 561.531C845.093 551.654 846.943 541.545 844.564 531.721C844.386 530.985 844.397 529.792 844.843 529.385C847.017 527.401 846.672 524.867 846.666 522.399C846.557 472.751 847.097 423.1 846.12 373.453C846.036 369.155 844.375 367.761 839.584 368.039ZM876.49 479.348C871.329 480.553 868.736 484.432 868.611 489.105C868.222 503.759 868.397 518.428 868.411 533.091C868.413 534.833 868.835 536.381 871.246 536.294C878.298 536.039 886.668 527.409 886.75 520.273C886.937 504.074 886.116 487.89 886.513 471.674C886.901 455.859 886.866 440.033 887.799 424.231C887.916 422.24 888.339 419.999 886.496 418.641C881.178 414.727 875.23 412.058 868.814 409.332C868.555 411.122 868.337 411.93 868.336 412.738C868.306 432.402 868.34 452.067 868.247 471.731C868.231 475.035 869.65 476.164 872.765 476.093C874.84 476.046 877.121 475.601 878.823 477.428C878.682 478.49 877.888 478.79 876.49 479.348ZM912.063 486.444C914.423 467.691 912.697 449.455 903.205 442.147C903.056 463.204 899.942 483.869 903.545 504.628C908.124 499.505 910.008 493.394 912.063 486.444Z" fill="black"/>
<path d="M197.667 589.108C187.171 584.979 179.55 578.95 179.645 566.863C179.668 563.961 177.75 563.291 175.543 562.765C156.586 558.241 141.972 546.844 129.337 532.754C116.188 518.09 109.934 500.421 108.658 480.888C107.639 465.28 108.603 449.861 114.69 435.28C124.796 411.07 142.681 395.226 167.727 387.489C169.446 386.958 171.362 386.537 173.112 386.731C178.278 387.306 179.501 384.756 179.038 380.239C178.75 377.431 178.822 374.581 178.823 371.75C178.829 357.508 188.199 347.058 202.297 345.624C214.371 344.395 226.439 343.045 238.538 342.122C248.246 341.381 257.442 342.924 265.067 349.856C267.436 352.01 268.311 353.553 265.807 356.383C262.733 359.859 260.204 363.827 257.528 367.644C252.836 374.337 253.336 381.014 257.685 387.68C260.35 391.765 263.864 395.06 267.674 398.547C264.514 401.18 264.188 404.685 264.075 408.418C262.962 445.225 264.611 482.031 264.097 518.836C263.872 534.991 263.617 551.145 263.418 567.3C263.273 579.136 253.601 589.133 241.575 589.276C227.084 589.448 212.589 589.229 197.667 589.108ZM200.399 386.53C200.175 430.353 200.304 474.174 201.17 517.991C201.38 528.627 201.358 528.627 212.245 528.771C213.411 528.786 214.577 528.816 215.744 528.831C222.664 528.915 222.688 528.914 222.685 522.089C222.665 475.772 222.706 429.454 222.573 383.137C222.522 365.343 225.816 368.226 206.733 368.314C206.566 368.314 206.4 368.33 206.233 368.335C203.145 368.441 201.39 369.819 200.887 373.074C200.244 377.233 200.495 381.386 200.399 386.53ZM179.7 504.5C180.325 493.779 179.331 483.071 179.655 472.325C180.202 454.193 179.728 436.031 179.649 417.881C179.642 416.229 179.503 414.557 179.213 412.932C178.966 411.545 178.16 410.146 176.521 410.735C171.165 412.661 166.196 415.451 161.743 418.937C159.012 421.076 160.519 424.576 160.41 427.461C160.278 430.943 160.609 434.442 160.701 437.935C160.916 446.09 161.687 454.284 161.144 462.389C160.607 470.402 162.976 478.088 162.152 486.199C160.927 498.252 161.287 510.468 161.042 522.617C161.016 523.904 161.001 525.633 161.753 526.422C166.337 531.234 171.431 535.369 178.546 537.339C180.643 526.401 179.255 515.907 179.7 504.5ZM222.449 565.501C222.48 558.029 222.452 550.557 222.564 543.086C222.625 539.04 220.344 536.696 217.126 534.936C210.633 531.384 201.876 534.311 201.525 540.406C201.087 548.03 201.261 555.691 201.196 563.335C201.184 564.7 201.362 566.479 202.961 566.458C209.322 566.377 215.723 568.445 222.449 565.501ZM136.007 489.541C138.176 496.274 141.403 502.451 145.498 508.256C145.316 485.178 148.647 462.156 143.87 438.606C133.201 452.111 130.515 469.859 136.007 489.541Z" fill="black"/>
<path d="M379.482 111.418C411.892 95.3384 445.919 86.0101 481.229 80.8513C502.228 77.7834 523.345 76.6441 544.464 77.9731C578.031 80.0855 610.698 87.1377 642.066 99.3015C701.037 122.169 750.748 157.395 787.747 209.496C801.318 228.607 812.324 249.071 822.335 270.171C824.31 274.333 823.427 276.376 819.309 278.156C812.471 281.111 805.999 284.906 798.562 287.611C794.581 275.258 789.502 263.784 783.387 252.715C760.787 211.808 730.123 178.573 690.852 153.067C668.096 138.287 644.184 126.046 618.779 116.66C599.592 109.571 579.525 106.673 559.335 104.222C547.467 102.781 535.798 99.6536 523.781 99.4222C508.876 99.1353 494.42 102.813 479.765 104.79C443.239 109.72 409.4 122.504 377.6 140.511C326.564 169.411 286.286 209.241 258.617 261.302C256.278 265.704 254.29 270.315 252.433 274.947C250.646 279.407 249.242 284.02 247.665 288.575C245.55 289.256 244.179 287.724 242.596 286.991C238.217 284.961 233.944 282.688 229.506 280.799C221.703 277.477 221.282 277.39 224.748 269.89C242.669 231.107 266.045 196.255 297.664 167.048C320.753 145.72 346.505 128.506 374.158 113.893C375.775 113.038 377.477 112.344 379.482 111.418Z" fill="black"/>
<path d="M593.249 293.546C630.228 299.584 666.063 308.118 700.576 321.869C724.353 331.342 746.262 343.574 764.341 361.976C766.544 364.219 768.569 366.7 770.318 369.311C772.521 372.601 772.961 376.257 770.357 379.554C767.612 383.028 764.092 385.021 759.422 383.725C753.4 382.054 748.109 378.833 742.888 375.593C717.707 359.968 690.185 350.371 661.596 343.29C631.343 335.796 600.836 330.372 569.606 329.084C540.466 327.882 511.299 327.067 482.2 328.509C434.93 330.85 388.719 339.547 344.125 355.666C328.011 361.491 312.186 368.229 298.285 378.677C295.112 381.061 291.649 383.104 287.606 383.926C282.632 384.938 278.635 383.438 275.872 379.283C273.18 375.235 275.046 371.537 277.631 368.301C285.411 358.56 295.557 351.48 305.292 343.923C326.122 327.753 350.669 319.685 375.253 311.781C403.207 302.793 432.022 297.537 460.964 293.015C468.5 291.838 476.166 291.395 483.791 290.897C508.694 289.272 533.559 287.307 558.551 290.419C569.902 291.833 581.422 292.047 593.249 293.546Z" fill="black"/>
<path d="M235.481 325.418C234.746 330.573 232.597 332.17 227.342 331.712C220.652 331.13 213.838 332.468 206.861 333.782C205.827 319.847 213.685 307.536 212.371 293.876C213.295 293.278 214.431 293.637 215.505 294.052C223.103 296.991 230.539 300.29 237.763 304.064C241.204 305.862 242.593 307.941 240.506 311.993C238.392 316.096 237.186 320.667 235.481 325.418Z" fill="black"/>
<path d="M832.26 331.764C827.362 331.211 822.861 330.956 818.449 331.892C815.271 332.566 813.884 331.333 813.119 328.411C812.154 324.724 811.069 321.051 809.728 317.487C808.446 314.081 806.771 310.824 804.906 306.702C814.004 302.471 821.814 295.458 832.495 293.223C833.832 307.072 841.15 318.806 840.179 332.692C837.524 332.398 835.105 332.13 832.26 331.764Z" fill="black"/>
<path d="M422.003 660.749C458.699 670.819 495.606 676.227 533.302 675.628C570.871 675.032 607.38 667.227 643.222 657.925C645.251 661.425 644.016 663.335 642.996 665.177C640.075 670.453 635.555 674.099 630.418 677.022C612.383 687.285 592.819 693.056 572.462 696.268C544.33 700.706 516.085 700.6 487.846 697.467C467.081 695.164 446.884 690.548 427.927 681.388C421.136 678.108 414.717 674.303 409.403 668.861C408.478 667.914 407.571 666.907 406.867 665.795C405.449 663.556 403.389 660.978 405.396 658.516C407.182 656.325 410.019 657.702 412.413 658.337C415.466 659.147 418.532 659.909 422.003 660.749Z" fill="black"/>
<path d="M467.269 451.808C463.282 475.783 440.71 493.453 416.44 483.69C402.177 477.952 392.141 461.466 393.834 446.508C395.817 428.979 407.306 416.98 424.406 414.602C448.53 411.247 467.804 429.638 467.269 451.808ZM421.906 431.197C415.787 435.988 413.755 441.555 416.298 446.563C419.571 453.01 426.051 456.629 431.51 455.058C439.067 452.884 443.232 447.491 442.638 440.646C441.854 431.603 431.839 426.694 421.906 431.197Z" fill="black"/>
<path d="M464.72 534.64C476.231 526.105 488.17 526.969 499.908 532.579C510.911 537.839 515.085 548.038 516.181 559.457C516.924 567.204 516.93 575.034 516.371 582.849C516.124 586.299 514.805 587.765 511.402 587.182C508.947 586.761 506.538 586.215 503.989 586.567C501.019 586.977 501.102 584.386 500.586 582.607C498.179 574.308 494.86 566.595 487.381 561.492C485.371 560.12 483.28 557.871 480.711 559.356C478.356 560.717 479.435 563.566 479.272 565.814C478.907 570.834 481.715 575.457 481.262 580.466C473.795 582.549 464.028 577.031 458.986 568.007C451.938 555.39 453.721 544.54 464.72 534.64Z" fill="black"/>
<path d="M553.076 531.836C566.962 524.42 586.046 531.037 592.336 541.985C600.189 555.654 589.567 579.043 574.022 581.242C572.401 581.471 570.693 581.688 569.115 580.432C568.415 577.176 570.325 574.427 571.199 571.463C571.857 569.234 572.897 567.077 573.246 564.808C573.62 562.379 572.544 560.118 570.472 558.769C568.443 557.447 566.624 558.806 565.022 560.006C557.508 565.637 551.314 572.311 549.673 581.947C549.05 585.608 547.334 586.748 543.962 586.381C542.977 586.274 541.961 586.34 540.968 586.429C533.678 587.083 533.575 587.088 533.802 579.909C534.017 573.097 533.882 566.294 534.324 559.462C535.164 546.49 541.201 537.536 553.076 531.836Z" fill="black"/>
<path d="M571.12 237H581.96L573.64 265.8H558.2L549.88 237H560.72L561.64 240.6H570.2L571.12 237ZM566.12 257.04L568.32 247.8H563.52L565.72 257.04H566.12ZM534.453 245.8H550.853V253H534.453V245.8ZM516.636 236.6C526.476 236.6 533.036 242.16 533.036 251.4C533.036 260.64 526.476 266.2 516.636 266.2C506.796 266.2 500.236 260.64 500.236 251.4C500.236 242.16 506.796 236.6 516.636 236.6ZM516.636 245C513.036 245 510.636 247.44 510.636 251.4C510.636 255.36 513.036 257.8 516.636 257.8C520.236 257.8 522.636 255.36 522.636 251.4C522.636 247.44 520.236 245 516.636 245ZM487.383 237H497.783V265.8H487.383V255.16H486.983L480.583 265.8H468.463L477.943 252.2L468.463 237H480.583L486.983 248.8H487.383V237Z" fill="black"/>
</svg>
